<svg width="66" height="66" viewBox="0 0 66 66" fill="none" xmlns="http://www.w3.org/2000/svg">
<path d="M34.634 24.8421C40.9416 24.8421 46.055 19.7287 46.055 13.4211C46.055 7.11338 40.9416 2 34.634 2C28.3263 2 23.2129 7.11338 23.2129 13.4211C23.2129 19.7287 28.3263 24.8421 34.634 24.8421Z" fill="#2F88FF" stroke="white" stroke-width="4" stroke-linecap="round" stroke-linejoin="round"/>
<path d="M2 62.3683C2 47.9501 15.1489 36.2631 31.3684 36.2631" stroke="white" stroke-width="4" stroke-linecap="round" stroke-linejoin="round"/>
<path d="M41.1582 43.1158C41.1582 41.3749 52.5793 37.8948 52.5793 37.8948C52.5793 37.8948 64.0003 41.3749 64.0003 43.1158C64.0003 57.0381 52.5793 64.0001 52.5793 64.0001C52.5793 64.0001 41.1582 57.0381 41.1582 43.1158Z" fill="#2F88FF" stroke="white" stroke-width="4" stroke-linecap="round" stroke-linejoin="round"/>
</svg>
