<svg width="32" height="32" viewBox="0 0 32 32" fill="none" xmlns="http://www.w3.org/2000/svg">
<path d="M16.738 12.3158C19.5866 12.3158 21.8959 10.0065 21.8959 7.1579C21.8959 4.30927 19.5866 2 16.738 2C13.8893 2 11.5801 4.30927 11.5801 7.1579C11.5801 10.0065 13.8893 12.3158 16.738 12.3158Z" fill="#2F88FF" stroke="black" stroke-width="4" stroke-linecap="round" stroke-linejoin="round"/>
<path d="M2 29.2631C2 22.7516 7.93822 17.4736 15.2632 17.4736" stroke="black" stroke-width="4" stroke-linecap="round" stroke-linejoin="round"/>
<path d="M19.6846 20.5685C19.6846 19.7823 24.8425 18.2106 24.8425 18.2106C24.8425 18.2106 30.0004 19.7823 30.0004 20.5685C30.0004 26.856 24.8425 30.0001 24.8425 30.0001C24.8425 30.0001 19.6846 26.856 19.6846 20.5685Z" fill="#2F88FF" stroke="black" stroke-width="4" stroke-linecap="round" stroke-linejoin="round"/>
</svg>
