<svg width="16" height="16" viewBox="0 0 16 16" fill="none" xmlns="http://www.w3.org/2000/svg">
<rect width="16" height="16" fill="url(#paint0_linear_202_308)"/>
<path d="M8.41221 6.19315C9.83682 6.19997 10.9972 5.05088 11.004 3.62657C11.0109 2.20227 9.86152 1.04212 8.43691 1.0353C7.0123 1.02848 5.85189 2.17757 5.84507 3.60187C5.83825 5.02617 6.9876 6.18633 8.41221 6.19315Z" fill="black" stroke="black" stroke-linecap="round" stroke-linejoin="round"/>
<path d="M1.00205 14.6315C1.01764 11.3758 4 8.75104 7.66324 8.76857" stroke="black" stroke-linecap="round" stroke-linejoin="round"/>
<path d="M9.8635 10.3264C9.86538 9.9333 12.4486 9.15981 12.4486 9.15981C12.4486 9.15981 15.0244 9.958 15.0225 10.3511C15.0074 13.4948 12.4204 15.0545 12.4204 15.0545C12.4204 15.0545 9.84844 13.4701 9.8635 10.3264Z" fill="black" stroke="black" stroke-linecap="round" stroke-linejoin="round"/>
<defs>
<linearGradient id="paint0_linear_202_308" x1="8" y1="0" x2="8" y2="16" gradientUnits="userSpaceOnUse">
<stop offset="0.411458" stop-color="white"/>
<stop offset="1" stop-color="#A8A8A8"/>
</linearGradient>
</defs>
</svg>
